<?xml version="1.0" standalone="no"?>
<!DOCTYPE svg PUBLIC "-//W3C//DTD SVG 20010904//EN"
 "http://www.w3.org/TR/2001/REC-SVG-20010904/DTD/svg10.dtd">
<svg version="1.0" xmlns="http://www.w3.org/2000/svg"
 width="160.000000pt" height="160.000000pt" viewBox="0 0 160.000000 160.000000"
 preserveAspectRatio="xMidYMid meet">
<metadata>
Created by potrace 1.14, written by Peter Selinger 2001-2017
</metadata>
<g transform="translate(0.000000,160.000000) scale(0.100000,-0.100000)"
fill="#000000" stroke="none">
<path d="M750 1571 c-8 -21 -25 -30 -87 -49 -183 -56 -248 -141 -255 -338 -2
-38 -6 -71 -10 -74 -4 -3 -25 -4 -48 -2 -31 3 -40 8 -40 23 0 29 -18 23 -24
-8 -20 -105 -23 -357 -6 -456 25 -136 93 -206 232 -238 38 -9 58 -19 61 -31 6
-22 -1 -28 -30 -28 -38 0 -146 -54 -192 -96 -65 -58 -94 -124 -105 -237 l-4
-36 574 0 c481 0 574 2 574 14 0 7 9 16 20 20 51 16 132 122 165 216 16 44 13
47 -55 73 -38 15 -277 124 -289 133 -2 1 15 20 38 42 51 48 80 111 88 193 18
169 -2 465 -30 455 -7 -2 -12 -10 -12 -18 0 -9 -14 -15 -42 -17 l-43 -3 0 48
c0 73 -19 171 -40 213 -35 69 -101 115 -220 154 -44 14 -77 32 -89 48 -16 20
-29 25 -70 25 -44 1 -51 -2 -61 -26z m340 -1159 c0 -5 -6 -17 -14 -27 -13 -19
-14 -18 -13 8 1 15 8 27 15 27 6 0 12 -4 12 -8z"/>
</g>
</svg>
